<svg width="13" height="14" viewBox="0 0 13 14" fill="none" xmlns="http://www.w3.org/2000/svg"><g clip-path="url(#clip0)" fill="#101010"><path d="M11.044 0H2.039C1.011 0 .174.881.174 1.964v9.478c0 1.083.837 1.964 1.865 1.964h9.005c1.029 0 1.866-.881 1.866-1.964V1.964C12.91.88 12.073 0 11.044 0zM6.567 10.212c-1.852 0-3.358-1.586-3.358-3.535 0-1.95 1.506-3.535 3.358-3.535 1.851 0 3.358 1.586 3.358 3.535s-1.507 3.535-3.358 3.535zm3.73-6.284c-.616 0-1.119-.529-1.119-1.179s.503-1.178 1.12-1.178c.617 0 1.12.529 1.12 1.178 0 .65-.503 1.179-1.12 1.179z"/><path d="M10.297 2.356a.384.384 0 00-.373.393c0 .217.167.393.373.393a.384.384 0 00.373-.393.384.384 0 00-.373-.393zm-3.73 1.571c-1.44 0-2.612 1.234-2.612 2.75s1.172 2.75 2.612 2.75c1.44 0 2.612-1.234 2.612-2.75s-1.172-2.75-2.612-2.75z"/></g><defs><clipPath id="clip0"><path fill="#fff" transform="translate(.174)" d="M0 0h12.736v13.406H0z"/></clipPath></defs></svg>