<svg width="21" height="14" viewBox="0 0 21 14" fill="none" xmlns="http://www.w3.org/2000/svg"><path d="M20.396 12.08a1.7 1.7 0 00-.07-.152c-.355-.727-1.035-1.62-2.039-2.68l-.02-.023-.011-.012-.011-.013h-.011c-.456-.493-.744-.824-.865-.994-.22-.323-.27-.65-.15-.982.086-.25.406-.78.961-1.588.292-.428.524-.772.694-1.03 1.232-1.86 1.766-3.048 1.602-3.565l-.064-.12c-.043-.074-.153-.14-.33-.2-.179-.061-.406-.071-.684-.031l-3.075.024c-.05-.02-.12-.018-.213.006l-.14.037-.053.03-.042.036a.505.505 0 00-.117.128.863.863 0 00-.107.212 21.104 21.104 0 01-1.143 2.728c-.263.5-.505.935-.726 1.303-.22.368-.405.638-.555.812-.15.174-.284.313-.405.418-.121.106-.214.15-.278.134a7.077 7.077 0 01-.181-.049.778.778 0 01-.24-.297A1.466 1.466 0 0112 5.74a5.878 5.878 0 01-.038-.49c-.003-.138-.002-.332.006-.583.007-.25.01-.42.01-.509 0-.307.006-.64.016-1l.027-.855c.007-.21.01-.432.01-.667 0-.234-.012-.418-.037-.551a2.08 2.08 0 00-.111-.388.638.638 0 00-.22-.291 1.156 1.156 0 00-.357-.164c-.377-.097-.858-.15-1.441-.157C8.54.067 7.69.164 7.313.374c-.15.09-.285.21-.406.364-.128.178-.146.275-.053.291.427.073.73.247.907.521l.064.146c.05.105.1.291.15.558.05.266.082.561.096.884.036.59.036 1.096 0 1.516a20.4 20.4 0 01-.101.982 2.171 2.171 0 01-.273.836.197.197 0 01-.053.061.716.716 0 01-.288.06c-.1 0-.221-.056-.363-.169a2.72 2.72 0 01-.443-.467 6.297 6.297 0 01-.518-.83 15.22 15.22 0 01-.598-1.261l-.17-.352a32.001 32.001 0 01-.438-.988c-.186-.432-.35-.85-.491-1.255a.797.797 0 00-.257-.388L4.025.847a1.03 1.03 0 00-.416-.182L.683.69C.384.69.182.766.075.92L.032.993A.438.438 0 000 1.186c0 .09.021.199.064.328.427 1.14.891 2.239 1.393 3.297A38.537 38.537 0 002.765 7.37a30.2 30.2 0 001.132 1.831c.384.574.638.942.763 1.103.125.162.222.283.294.364l.267.29c.17.195.421.427.752.698.331.27.698.538 1.1.8.402.263.87.477 1.404.643a4.306 4.306 0 001.558.2h1.228c.25-.024.438-.113.566-.267l.042-.06a.867.867 0 00.08-.225 1.39 1.39 0 00.038-.333 4.43 4.43 0 01.07-.94c.052-.278.113-.488.18-.63a1.56 1.56 0 01.23-.357.976.976 0 01.182-.176.67.67 0 01.085-.043c.17-.064.372-.002.603.188.232.19.449.425.652.704.203.279.446.592.731.94.285.347.534.605.747.775l.214.146c.142.097.327.186.555.266.227.081.427.101.598.06l2.733-.047c.27 0 .48-.051.63-.152.15-.101.238-.213.266-.334.03-.12.03-.258.006-.412a1.695 1.695 0 00-.075-.321z" fill="#101010"/></svg>