<svg width="18" height="14" viewBox="0 0 18 14" fill="none" xmlns="http://www.w3.org/2000/svg"><path d="M17.252 1.296C16.775.352 16.256.179 15.201.112 14.146.033 11.494 0 9.197 0 6.895 0 4.242.033 3.189.111 2.136.18 1.616.351 1.134 1.296.642 2.239.389 3.862.389 6.721v.01c0 2.846.253 4.482.745 5.415.482.944 1 1.115 2.054 1.194 1.054.069 3.707.11 6.009.11 2.297 0 4.95-.041 6.005-.108 1.055-.08 1.574-.251 2.051-1.195.497-.933.748-2.569.748-5.415v-.01c0-2.86-.251-4.483-.749-5.426zM6.993 10.393V3.056l5.504 3.668-5.504 3.668z" fill="#101010"/></svg>